<svg width="16" height="17" viewBox="0 0 16 17" fill="none" xmlns="http://www.w3.org/2000/svg">
<path d="M0 8.5C0 10.6217 0.842855 12.6566 2.34315 14.1569C3.84344 15.6571 5.87827 16.5 8 16.5C10.1217 16.5 12.1566 15.6571 13.6569 14.1569C15.1571 12.6566 16 10.6217 16 8.5C16 6.37827 15.1571 4.34344 13.6569 2.84315C12.1566 1.34285 10.1217 0.5 8 0.5C5.87827 0.5 3.84344 1.34285 2.34315 2.84315C0.842855 4.34344 0 6.37827 0 8.5H0ZM5.904 11.303C5.85788 11.3508 5.8027 11.3888 5.7417 11.4151C5.6807 11.4413 5.61509 11.455 5.5487 11.4556C5.48231 11.4562 5.41647 11.4436 5.35502 11.4184C5.29357 11.3933 5.23775 11.3561 5.1908 11.3092C5.14386 11.2623 5.10673 11.2064 5.08159 11.145C5.05645 11.0835 5.0438 11.0177 5.04437 10.9513C5.04495 10.8849 5.05874 10.8193 5.08495 10.7583C5.11115 10.6973 5.14924 10.6421 5.197 10.596L9.293 6.5H6.525C6.39239 6.5 6.26521 6.44732 6.17145 6.35355C6.07768 6.25979 6.025 6.13261 6.025 6C6.025 5.86739 6.07768 5.74021 6.17145 5.64645C6.26521 5.55268 6.39239 5.5 6.525 5.5H10.5C10.6326 5.5 10.7598 5.55268 10.8536 5.64645C10.9473 5.74021 11 5.86739 11 6V9.975C11 10.1076 10.9473 10.2348 10.8536 10.3286C10.7598 10.4223 10.6326 10.475 10.5 10.475C10.3674 10.475 10.2402 10.4223 10.1464 10.3286C10.0527 10.2348 10 10.1076 10 9.975V7.207L5.904 11.303Z" fill="#D0A36D"/>
</svg>
