<svg width="20" height="20" viewBox="0 0 20 20" fill="none" xmlns="http://www.w3.org/2000/svg">
<path d="M16.1356 8.21935C16.2062 8.21692 16.2766 8.22872 16.3425 8.25405C16.4084 8.27939 16.4686 8.31774 16.5194 8.36682C16.5702 8.41589 16.6106 8.4747 16.6382 8.53972C16.6658 8.60474 16.68 8.67465 16.68 8.74529C16.68 8.81592 16.6658 8.88583 16.6382 8.95086C16.6106 9.01588 16.5702 9.07468 16.5194 9.12376C16.4686 9.17284 16.4084 9.21119 16.3425 9.23652C16.2766 9.26186 16.2062 9.27366 16.1356 9.27122H14.6738V10.2087H16.1356C16.2066 10.2053 16.2776 10.2162 16.3443 10.241C16.4109 10.2658 16.4718 10.3039 16.5233 10.3529C16.5748 10.402 16.6158 10.4609 16.6438 10.5263C16.6718 10.5916 16.6862 10.662 16.6862 10.7331C16.6862 10.8042 16.6718 10.8746 16.6438 10.9399C16.6158 11.0053 16.5748 11.0642 16.5233 11.1133C16.4718 11.1623 16.4109 11.2004 16.3443 11.2252C16.2776 11.25 16.2066 11.2609 16.1356 11.2575H14.15C14.0112 11.257 13.8782 11.2015 13.7802 11.1033C13.6822 11.005 13.627 10.8719 13.6269 10.7331V6.7581C13.6269 6.46872 13.8612 6.23123 14.15 6.23123H16.1394C16.2743 6.2382 16.4014 6.29682 16.4944 6.39495C16.5873 6.49308 16.6389 6.6232 16.6385 6.75834C16.6381 6.89348 16.5857 7.02328 16.4922 7.12086C16.3987 7.21844 16.2712 7.2763 16.1363 7.28248H14.6744V8.21997L16.1356 8.21935ZM12.9269 10.7325C12.9257 10.8717 12.8697 11.0048 12.7709 11.1029C12.6721 11.201 12.5386 11.2561 12.3994 11.2562C12.317 11.257 12.2355 11.2386 12.1614 11.2025C12.0873 11.1664 12.0226 11.1135 11.9725 11.0481L9.93813 8.28122V10.7318C9.93813 10.8709 9.88288 11.0043 9.78454 11.1026C9.6862 11.201 9.55282 11.2562 9.41375 11.2562C9.27468 11.2562 9.1413 11.201 9.04296 11.1026C8.94462 11.0043 8.88937 10.8709 8.88937 10.7318V6.75685C8.88937 6.53247 9.03625 6.33123 9.2475 6.25935C9.29967 6.24092 9.35468 6.23182 9.41 6.23247C9.5725 6.23247 9.7225 6.3206 9.82313 6.44435L11.8737 9.21747V6.75685C11.8737 6.46747 12.1081 6.22998 12.3981 6.22998C12.6881 6.22998 12.9256 6.46747 12.9256 6.75685L12.9269 10.7325ZM8.14188 10.7325C8.14121 10.8719 8.08533 11.0054 7.98645 11.1036C7.88758 11.2019 7.75379 11.257 7.61437 11.2568C7.476 11.2557 7.34368 11.2 7.24619 11.1018C7.14869 11.0036 7.09391 10.8709 7.09375 10.7325V6.75748C7.09375 6.4681 7.32813 6.2306 7.61813 6.2306C7.9075 6.2306 8.1425 6.4681 8.1425 6.75748L8.14188 10.7325ZM6.0875 11.2568H4.09813C3.95886 11.2565 3.82535 11.2013 3.72659 11.1031C3.62782 11.0049 3.57178 10.8717 3.57062 10.7325V6.75748C3.57062 6.4681 3.80813 6.2306 4.09813 6.2306C4.38813 6.2306 4.6225 6.4681 4.6225 6.75748V10.2081H6.0875C6.22657 10.2081 6.35995 10.2633 6.45829 10.3617C6.55663 10.46 6.61188 10.5934 6.61188 10.7325C6.61188 10.8715 6.55663 11.0049 6.45829 11.1033C6.35995 11.2016 6.22657 11.2568 6.0875 11.2568V11.2568ZM20 8.5931C20 4.11747 15.5106 0.474976 10 0.474976C4.48937 0.474976 0 4.11747 0 8.5931C0 12.6037 3.55813 15.9631 8.3625 16.6012C8.68813 16.6693 9.13062 16.8162 9.245 17.0931C9.34562 17.3431 9.31 17.7306 9.2775 17.995L9.14062 18.8443C9.10125 19.095 8.93875 19.8312 10.0131 19.3818C11.0906 18.9325 15.7781 15.9837 17.8775 13.5675C19.3131 11.9956 20 10.3806 20 8.5931Z" fill="white"/>
</svg>
